<?xml version="1.0" encoding="UTF-8"?>
<svg width="200px" height="200px" viewBox="0 0 200 200" version="1.1" xmlns="http://www.w3.org/2000/svg" xmlns:xlink="http://www.w3.org/1999/xlink">
    <title>Artboard</title>
    <g id="Artboard" stroke="none" stroke-width="1" fill="none" fill-rule="evenodd">
        <path d="M131,146 L131,55.1242363 L125.232558,55.1242363 L118.83822,61.1826205 C117.542636,59.6836388 116.267947,58.4657162 115.014156,57.5288527 C113.760364,56.5919891 112.517021,55.8633175 111.284125,55.3428377 C110.05123,54.822358 108.828783,54.4684318 107.616785,54.2810591 C106.404786,54.0936864 105.23458,54 104.106168,54 C99.2581732,54 94.7131783,54.9472731 90.471183,56.8418194 C86.2291877,58.7363657 82.5096057,61.3179452 79.3124368,64.586558 C76.1152679,67.8551709 73.5972363,71.6754922 71.7583418,76.0475221 C69.9194473,80.4195519 69,85.0830505 69,90.0380177 C69,94.1185789 69.6895854,97.9909482 71.0687563,101.655126 C72.4479272,105.319303 74.339063,108.525458 76.7421638,111.273591 C79.1452646,114.021724 81.9558477,116.207739 85.173913,117.831636 C88.3919784,119.455533 91.8190091,120.267481 95.4550051,120.267481 C97.2938996,120.267481 99.0178632,120.132157 100.626896,119.861507 C102.235929,119.590858 103.782272,119.174474 105.265925,118.612356 C106.749579,118.050238 108.212336,117.321566 109.654196,116.426341 C111.096057,115.531116 112.569262,114.458927 114.073812,113.209776 L114.073812,113.209776 L114.073812,146 L131,146 Z M101.57631,108 C99.6082005,108 97.7425968,107.356788 95.9794989,106.070365 C94.2164009,104.783942 92.6685649,103.051421 91.3359909,100.872801 C90.0034169,98.6941813 88.9476082,96.1524583 88.1685649,93.2476319 C87.3895216,90.3428056 87,87.2512404 87,83.9729364 C87,81.0266125 87.4100228,78.22553 88.2300683,75.5696888 C89.0501139,72.9138475 90.167426,70.5796121 91.5820046,68.5669824 C92.9965831,66.5543527 94.6571754,64.9566982 96.5637813,63.7740189 C98.4703872,62.5913396 100.510251,62 102.683371,62 C103.995444,62 105.317768,62.217862 106.650342,62.6535859 C107.982916,63.0893099 109.192483,63.7117727 110.279043,64.5209743 C111.365604,65.3301759 112.257403,66.315742 112.954442,67.4776725 C113.651481,68.6396031 114,69.9675237 114,71.4614344 L114,71.4614344 L114,102.397835 C113.46697,103.020298 112.769932,103.663509 111.908884,104.32747 C111.047836,104.99143 110.074032,105.593144 108.987472,106.132612 C107.900911,106.672079 106.732346,107.118178 105.481777,107.470907 C104.231207,107.823636 102.929385,108 101.57631,108 Z" id="q" fill="#FFFFFF" fill-rule="nonzero"></path>
    </g>
</svg>