<svg data-v-2b0f1d8f="" version="1.1" xmlns="http://www.w3.org/2000/svg" xmlns:xlink="http://www.w3.org/1999/xlink" x="0px" y="0px" viewBox="0 0 7 17" xml:space="preserve" svg-inline="" role="presentation" focusable="false" tabindex="-1"><g data-v-2b0f1d8f="" id="Layer_1"><g data-v-2b0f1d8f=""><rect data-v-2b0f1d8f="" fill="#fff" x="0.5" y="0.5" width="1" height="1" class="st0"></rect> <polygon data-v-2b0f1d8f="" fill="#fff" points="2,0 0,0 0,2 2,2 2,0 		" class="st0"></polygon></g></g> <g data-v-2b0f1d8f="" id="Layer_1_copy"><g data-v-2b0f1d8f=""><rect data-v-2b0f1d8f="" fill="#fff" x="5.5" y="0.5" width="1" height="1" class="st0"></rect> <polygon data-v-2b0f1d8f="" fill="#fff" points="7,0 5,0 5,2 7,2 7,0 		" class="st0"></polygon></g></g> <g data-v-2b0f1d8f="" id="Layer_1_copy_3"><g data-v-2b0f1d8f=""><rect data-v-2b0f1d8f="" fill="#fff" x="0.5" y="5.5" width="1" height="1" class="st0"></rect> <polygon data-v-2b0f1d8f="" fill="#fff" points="2,5 0,5 0,7 2,7 2,5 		" class="st0"></polygon></g></g> <g data-v-2b0f1d8f="" id="Layer_1_copy_2"><g data-v-2b0f1d8f=""><rect data-v-2b0f1d8f="" fill="#fff" x="5.5" y="5.5" width="1" height="1" class="st0"></rect> <polygon data-v-2b0f1d8f="" fill="#fff" points="7,5 5,5 5,7 7,7 7,5 		" class="st0"></polygon></g></g> <g data-v-2b0f1d8f="" id="Layer_1_copy_5"><g data-v-2b0f1d8f=""><rect data-v-2b0f1d8f="" fill="#fff" x="0.5" y="10.5" width="1" height="1" class="st0"></rect> <polygon data-v-2b0f1d8f="" fill="#fff" points="2,10 0,10 0,12 2,12 2,10 		" class="st0"></polygon></g></g> <g data-v-2b0f1d8f="" id="Layer_1_copy_4"><g data-v-2b0f1d8f=""><rect data-v-2b0f1d8f="" fill="#fff" x="5.5" y="10.5" width="1" height="1" class="st0"></rect> <polygon data-v-2b0f1d8f="" fill="#fff" points="7,10 5,10 5,12 7,12 7,10 		" class="st0"></polygon></g></g> <g data-v-2b0f1d8f="" id="Layer_1_copy_7"><g data-v-2b0f1d8f=""><rect data-v-2b0f1d8f="" fill="#fff" x="0.5" y="15.5" width="1" height="1" class="st0"></rect> <polygon data-v-2b0f1d8f="" fill="#fff" points="2,15 0,15 0,17 2,17 2,15 		" class="st0"></polygon></g></g> <g data-v-2b0f1d8f="" id="Layer_1_copy_6"><g data-v-2b0f1d8f=""><rect data-v-2b0f1d8f="" fill="#fff" x="5.5" y="15.5" width="1" height="1" class="st0"></rect> <polygon data-v-2b0f1d8f="" fill="#fff" points="7,15 5,15 5,17 7,17 7,15 		" class="st0"></polygon></g></g></svg>